<svg id="Layer_1" data-name="Layer 1" xmlns="http://www.w3.org/2000/svg" viewBox="0 0 603.5 603.45"><defs><style>.cls-1{fill:#fff;}</style></defs><title>heheh</title><path d="M.05,301.73q0-147,0-294A7.65,7.65,0,0,1,3,1.34,4.83,4.83,0,0,1,6.77,0a5.14,5.14,0,0,0,.68,0q294.3,0,588.61,0a6.42,6.42,0,0,1,4.59,1.42,7.49,7.49,0,0,1,2.84,6.06q-.09,240.14,0,480.27c0,12.77-.12,25.54.06,38.31a15.25,15.25,0,0,1-4.78,11.52c-9.86,9.91-19.66,19.87-29.52,29.78q-15.42,15.5-30.93,30.93a26.3,26.3,0,0,1-4,3.28,10.66,10.66,0,0,1-6.43,1.84h-.91q-259.62,0-519.25,0a6.89,6.89,0,0,1-5.32-1.92A7.12,7.12,0,0,1,0,596.15Q.1,544.8.05,493.47Zm584.8-124.64V25.27a6.42,6.42,0,0,0-6.65-6.65H528.79q-251.49,0-503,0a6.86,6.86,0,0,0-7.21,7.34q.06,275.29,0,550.58c0,.6.05,1.21,0,1.81a5.23,5.23,0,0,0,1.53,4.09,7,7,0,0,0,5.74,2.48q246.61-.07,493.23,0c.38,0,.75,0,1.13,0a9.93,9.93,0,0,0,6-1.71,24.22,24.22,0,0,0,3.85-3.14q25-25,50-50a25.45,25.45,0,0,0,2-2.18,11.89,11.89,0,0,0,2.79-7.48c0-9.9,0-19.79,0-29.69,0-.58-.09-1.15-.16-1.94H381.28V177.09H584.85Zm-.13,192.83H415.28v79H584.72Z"/><path class="cls-1" d="M584.85,177.09H381.28V488.68H584.69c.07.79.16,1.36.16,1.94,0,9.9,0,19.79,0,29.69a11.89,11.89,0,0,1-2.79,7.48,25.45,25.45,0,0,1-2,2.18q-25,25-50,50a24.22,24.22,0,0,1-3.85,3.14,9.93,9.93,0,0,1-6,1.71c-.38,0-.75,0-1.13,0q-246.61,0-493.23,0a7,7,0,0,1-5.74-2.48,5.23,5.23,0,0,1-1.53-4.09c.06-.6,0-1.21,0-1.81q0-275.29,0-550.58a6.86,6.86,0,0,1,7.21-7.34q251.49.06,503,0H578.2a6.42,6.42,0,0,1,6.65,6.65V177.09ZM86.53,86.68v22.11c2.65.5,20.88.39,22.62-.13v-2.43c0-5.74,0-11.49,0-17.23a20.85,20.85,0,0,1,.22-2.22,8.63,8.63,0,0,1,1.71-.34q9.51,0,19,0a13.84,13.84,0,0,1,1.71.23v67.45c2.57.48,20.87.4,22.51-.06V41.37c-2.72-.5-20.81-.37-22.63.2V63.79H109.29c-.06.6-.13,1-.13,1.32,0,6.64,0,13.29,0,19.93a13.35,13.35,0,0,0,.24,1.78,13.83,13.83,0,0,0-2.18-.38q-9.41,0-18.81,0a12,12,0,0,0-2,.32v-23H63.8V41.43c-2.4-.51-20.78-.45-22.5,0V154.16c3,.51,20.86.36,22.63-.24V86.55c.59,0,1-.12,1.34-.12,6.57,0,13.14,0,19.71,0A10.59,10.59,0,0,1,86.53,86.68Zm-45.1,90.54c-.45,2.6-.36,224.66.08,226.41a5.8,5.8,0,0,0,.85.11h111a2.88,2.88,0,0,0,.65-.13.49.49,0,0,0,.19-.14.79.79,0,0,0,.12-.15V358.43H98v-136h40.4c2.65,0,5.29,0,7.94,0l8,0V177.22Zm248.94,0H177.26V403.59H290.34V358.42H242c-2.68,0-5.36,0-8-.06V222.42h40.44c2.65,0,5.29,0,7.93,0s5.37.11,8-.1ZM200,109h67.73V86.42H219.12c-3.17,0-6.34,0-9.51,0s-6.43,0-9.64,0V63.76h64.69c4.31,0,8.61,0,12.92,0s8.53.11,12.91-.09c0-7.68.06-15-.06-22.41H177.27V154.13c2.29.46,111.33.39,113.06-.06V131.75H200ZM471.77,131.6V41.4c-2.67-.51-20.88-.4-22.46.08v112.7c3.39.52,111.5.34,113.05-.17.44-5,.23-111.07-.24-112.77h-22.3V131.6ZM358.49,63.78v70.41c0,3.4,0,6.8,0,10.19s0,6.58,0,9.89h22.63v-74c0-2.8,0-5.59,0-8.38s0-5.38.06-8.27h45.13V41.36c-2.67-.47-111.4-.36-113,.11V63.78Z"/><path class="cls-1" d="M584.72,369.92v79H415.28v-79Z"/><path d="M41.43,177.22H154.32v45.15l-8,0c-2.65,0-5.29,0-7.94,0H98v136h56.41v44.88a.79.79,0,0,1-.12.15.49.49,0,0,1-.19.14,2.88,2.88,0,0,1-.65.13h-111a5.8,5.8,0,0,1-.85-.11C41.07,401.88,41,179.82,41.43,177.22Z"/><path d="M290.37,177.25v45.07c-2.66.21-5.35.07-8,.1s-5.28,0-7.93,0H234V358.36c2.66,0,5.34.05,8,.06h48.35v45.17H177.26V177.25Z"/><path d="M200,109v22.73h90.38v22.32c-1.73.45-110.77.52-113.06.06V41.25H290.43c.12,7.37,0,14.73.06,22.41-4.38.2-8.65.07-12.91.09s-8.61,0-12.92,0H200V86.39c3.21.07,6.42,0,9.64,0s6.34,0,9.51,0h48.56V109Z"/><path d="M471.77,131.6h68.05V41.24h22.3c.47,1.7.68,107.81.24,112.77-1.55.51-109.66.69-113,.17V41.48c1.58-.48,19.79-.59,22.46-.08Z"/><path d="M358.49,63.78H313.31V41.47c1.63-.47,110.36-.58,113-.11v22.3H381.21c-.11,2.89,0,5.58-.06,8.27s0,5.58,0,8.38v74H358.52c-.06-3.31,0-6.6,0-9.89s0-6.79,0-10.19V63.78Z"/><path d="M109.41,86.82a13.35,13.35,0,0,1-.24-1.78c0-6.64,0-13.29,0-19.93,0-.36.07-.72.13-1.32h22.42V41.57c1.82-.57,19.91-.7,22.63-.2V154.06c-1.64.46-19.94.54-22.51.06V86.67a13.84,13.84,0,0,0-1.71-.23q-9.53,0-19,0a8.63,8.63,0,0,0-1.71.34Z"/><path d="M86.52,86.69A9.15,9.15,0,0,0,85,86.44c-6.57,0-13.14,0-19.71,0-.37,0-.75.07-1.34.12v67.37c-1.77.6-19.59.75-22.63.24V41.47c1.72-.49,20.1-.55,22.5,0V63.72H86.46v23Z"/><path d="M109.38,86.78a20.85,20.85,0,0,0-.22,2.22c0,5.74,0,11.49,0,17.23v2.43c-1.74.52-20,.63-22.62.13q0-11,0-22.11l-.06.07a13.1,13.1,0,0,1,2-.31q9.4,0,18.81,0a13.83,13.83,0,0,1,2.18.38Z"/></svg>