<svg version="1" xmlns="http://www.w3.org/2000/svg" width="933.333" height="933.333" viewBox="0 0 700.000000 700.000000"><path d="M7.6 7.6L5 10.3v679.9l2.9 2.9 3 2.9h298.8c206.4 0 300-.3 302.8-1.1 3.4-.9 9.6-6.7 41.8-38.9 27.1-27.2 38.3-39.1 39.7-42.2 1.9-4.2 2-8.7 2-303.6V10.8l-2.9-2.9-2.9-2.9H10.3L7.6 7.6zm663.9 20.9l2.5 2.4V208H441v356h233v41.2l-24.3 24.7c-13.4 13.5-27.7 28-31.8 32.2-4.1 4.1-8.8 8.5-10.6 9.7l-3.1 2.2H30.9l-2.4-2.5-2.5-2.4V31.6l2.7-2.8 2.7-2.8h637.7l2.4 2.5zm2.5 445V519H480v-91h194v45.5z"/><path d="M52 116.5V181h26v-77h26v26h26v-26h26v77h25V52h-25v26h-26v26h-26V78H78V52H52v64.5zM208 116.5V181h129v-25H233v-26h78v-26h-78V78h104V52H208v64.5zM363 65v13h52v103h26V78h52V52H363v13zM519 116.5V181h129V52h-25v104h-79V52h-25v64.5zM52 337.5V467h129v-52h-64V259h64v-51H52v129.5zM208 337.5V467h129v-52h-65l.2-77.8.3-77.7 32.3-.3 32.2-.2v-51H208v129.5z"/></svg>